<?xml version="1.0" encoding="UTF-8"?>
<!DOCTYPE svg PUBLIC "-//W3C//DTD SVG 1.1//EN" "http://www.w3.org/Graphics/SVG/1.1/DTD/svg11.dtd">
<!-- Creator: CorelDRAW X6 -->
<svg xmlns="http://www.w3.org/2000/svg" xml:space="preserve" width="109.008mm" height="109.008mm" version="1.1" style="shape-rendering:geometricPrecision; text-rendering:geometricPrecision; image-rendering:optimizeQuality; fill-rule:evenodd; clip-rule:evenodd"
viewBox="0 0 10923 10923"
 xmlns:xlink="http://www.w3.org/1999/xlink">
 <defs>
  <style type="text/css">
   <![CDATA[
    .fil0 {fill:#3A5795}
   ]]>
  </style>
 </defs>
 <g id="Camada_x0020_1">
  <metadata id="CorelCorpID_0Corel-Layer"/>
  <path id="facebook-circle-icon" class="fil0" d="M5461 0c-3016,0 -5461,2445 -5461,5461 0,3016 2445,5461 5461,5461 3016,0 5461,-2445 5461,-5461 0,-3016 -2445,-5461 -5461,-5461zm1616 3213c0,0 -546,0 -763,0 -269,0 -326,110 -326,389 0,232 0,674 0,674l1089 0 -105 1182 -984 0 0 3532 -1410 0 0 -3517 -733 0 0 -1197 733 0c0,0 0,-172 0,-943 0,-885 473,-1347 1523,-1347 172,0 977,0 977,0l0 1227 0 0z"/>
 </g>
</svg>
