<?xml version="1.0" encoding="UTF-8"?>
<!DOCTYPE svg PUBLIC "-//W3C//DTD SVG 1.1//EN" "http://www.w3.org/Graphics/SVG/1.1/DTD/svg11.dtd">
<!-- Creator: CorelDRAW X6 -->
<svg xmlns="http://www.w3.org/2000/svg" xml:space="preserve" width="109.008mm" height="109.008mm" version="1.1" style="shape-rendering:geometricPrecision; text-rendering:geometricPrecision; image-rendering:optimizeQuality; fill-rule:evenodd; clip-rule:evenodd"
viewBox="0 0 10901 10901"
 xmlns:xlink="http://www.w3.org/1999/xlink">
 <defs>
  <style type="text/css">
   <![CDATA[
    .fil0 {fill:#1FBDF2}
   ]]>
  </style>
 </defs>
 <g id="Camada_x0020_1">
  <metadata id="CorelCorpID_0Corel-Layer"/>
  <path id="twitter-4-icon" class="fil0" d="M5450 0c-3010,0 -5450,2440 -5450,5450 0,3010 2440,5450 5450,5450 3010,0 5450,-2440 5450,-5450 0,-3010 -2440,-5450 -5450,-5450zm2741 4511c80,1778 -1246,3760 -3593,3760 -714,0 -1378,-209 -1938,-568 671,79 1340,-107 1872,-524 -553,-10 -1020,-376 -1181,-878 198,38 393,27 571,-22 -608,-122 -1028,-670 -1014,-1256 170,95 365,152 573,158 -563,-376 -722,-1120 -391,-1688 623,765 1555,1268 2606,1321 -184,-791 415,-1552 1231,-1552 364,0 692,154 923,399 288,-57 558,-162 803,-307 -94,295 -295,543 -556,699 256,-31 499,-98 726,-199 -169,254 -384,476 -631,654z"/>
 </g>
</svg>
