<?xml version="1.0" encoding="UTF-8"?>
<!DOCTYPE svg PUBLIC "-//W3C//DTD SVG 1.1//EN" "http://www.w3.org/Graphics/SVG/1.1/DTD/svg11.dtd">
<!-- Creator: CorelDRAW X6 -->
<svg xmlns="http://www.w3.org/2000/svg" xml:space="preserve" width="109.008mm" height="109.008mm" version="1.1" style="shape-rendering:geometricPrecision; text-rendering:geometricPrecision; image-rendering:optimizeQuality; fill-rule:evenodd; clip-rule:evenodd"
viewBox="0 0 10901 10901"
 xmlns:xlink="http://www.w3.org/1999/xlink">
 <defs>
  <style type="text/css">
   <![CDATA[
    .fil0 {fill:#EB1F1C}
   ]]>
  </style>
 </defs>
 <g id="Camada_x0020_1">
  <metadata id="CorelCorpID_0Corel-Layer"/>
  <path id="youtube-4-icon" class="fil0" d="M6287 6269c-124,0 -230,79 -308,174l0 -813 -350 0 0 2524 350 0 0 -143c96,120 202,167 329,167 230,0 316,-179 316,-409l0 -1033c0,-253 -84,-467 -338,-467zm-19 1449c0,59 -10,102 -30,128 -38,50 -121,48 -177,19 -26,-13 -54,-35 -82,-65l0 -1160c24,-26 47,-45 71,-57 61,-31 139,-25 181,31 25,33 37,80 37,143l0 961 0 0zm-1166 -3661l0 -909c0,-107 49,-186 151,-186 111,0 159,77 159,186l0 909c0,106 -54,185 -152,185 -100,0 -159,-82 -159,-185zm-157 2236l346 0 0 1862 -346 0 0 -206c-64,76 -130,133 -199,173 -187,107 -443,105 -443,-273l0 -1556 346 0 0 1427c0,75 18,125 92,125 67,0 161,-87 203,-139l0 -1413zm-637 -296l-403 0 0 2158 -390 0 0 -2158 -403 0 0 -366 1196 0 0 366 0 0zm3103 249c-312,0 -526,224 -526,548l0 836c0,335 169,576 500,576 365,0 519,-217 519,-576l0 -140 -356 0 0 129c0,162 -9,260 -155,260 -139,0 -151,-121 -151,-260l0 -351 662 0 0 -474c0,-337 -160,-548 -493,-548zm136 733l-306 0 0 -188c0,-128 26,-218 155,-218 124,0 151,92 151,218l0 188 0 0zm-2098 -6978c-3010,0 -5450,2440 -5450,5450 0,3010 2440,5450 5450,5450 3010,0 5450,-2440 5450,-5450 0,-3010 -2440,-5450 -5450,-5450zm642 2606l363 0 0 1499c0,79 19,132 97,132 71,0 169,-91 214,-146l0 -1484 363 0 0 1955 -363 0 0 -216c-157,187 -310,244 -420,244 -195,0 -254,-156 -254,-349l0 -1634 0 0zm-831 -16c295,0 523,219 523,525l0 958c0,328 -230,524 -523,524 -353,0 -533,-179 -533,-524l0 -958c0,-314 212,-525 533,-525zm-1474 -679l282 1059 262 -1059 416 0 -476 1575 0 1075 -409 0 0 -1075 -487 -1575 412 0zm4666 6034c0,460 -373,833 -833,833l-4284 0c-460,0 -833,-373 -833,-833l0 -2106c0,-460 373,-833 833,-833l4284 0c460,0 833,373 833,833l0 2106z"/>
 </g>
</svg>
